<svg viewBox="0 0 32 32" xmlns="http://www.w3.org/2000/svg"><g data-name="Layer 2"><path d="M31 21h-2v-5a13 13 0 0 0-26 0v5H1v-5a15 15 0 0 1 30 0Z" fill="#148287" class="fill-000000"></path><path d="M7.23 27H6a5 5 0 0 1-5-5v-2a5 5 0 0 1 5-5h1.23A1.8 1.8 0 0 1 9 16.8v8.4A1.8 1.8 0 0 1 7.23 27ZM6 17a3 3 0 0 0-3 3v2a3 3 0 0 0 3 3h1v-8ZM26 27h-1.2a1.8 1.8 0 0 1-1.8-1.8v-8.4a1.8 1.8 0 0 1 1.8-1.8H26a5 5 0 0 1 5 5v2a5 5 0 0 1-5 5Zm-1-2h1a3 3 0 0 0 3-3v-2a3 3 0 0 0-3-3h-1Z" fill="#148287" class="fill-000000"></path><path d="M6 16h1.23a.8.8 0 0 1 .8.8v8.4a.8.8 0 0 1-.8.8H6a4 4 0 0 1-4-4v-2a4 4 0 0 1 4-4ZM26 26h-1.2a.8.8 0 0 1-.8-.8v-8.4a.8.8 0 0 1 .8-.8H26a4 4 0 0 1 4 4v2a4 4 0 0 1-4 4ZM23.89 31H17a1 1 0 0 1-1-1 1 1 0 0 1 1-1h7a1 1 0 0 0 1-1v-2h2v2a3 3 0 0 1-1.31 2.49 3.13 3.13 0 0 1-1.8.51Z" fill="#148287" class="fill-000000"></path></g></svg>